<svg xmlns="http://www.w3.org/2000/svg" viewBox="0 0 512 512" width="512" height="512">
  <defs>
    <filter id="glow">
      <feGaussianBlur stdDeviation="4" result="blur"/>
      <feMerge>
        <feMergeNode in="blur"/>
        <feMergeNode in="SourceGraphic"/>
      </feMerge>
    </filter>
  </defs>
  <g transform="translate(256,256)" filter="url(#glow)">
    <g fill="none" stroke="#4ADE80" stroke-width="4" stroke-linecap="round">
      <path d="M-50,120 L50,120 L50,100 L30,100 L30,80 L-30,80 L-30,100 L-50,100 Z" fill="#4ADE80" stroke="none" opacity="0.9"/>
      <rect x="-22" y="-20" width="44" height="100" fill="#4ADE80" stroke="none" opacity="0.9"/>
      <path d="M-80,-20 L120,-20 L130,-50 L120,-80 L-60,-80 L-80,-80 L-90,-50 Z" fill="#4ADE80" stroke="none" opacity="0.9"/>
      <path d="M-90,-50 L-130,-45 L-140,-40" stroke="#4ADE80" stroke-width="8" fill="none"/>
      <!-- Inner circuit traces -->
      <path d="M-10,75 L-10,20 L-10,-15" stroke="#0a0a0a" stroke-width="2.5"/>
      <path d="M10,75 L10,30 L10,-15" stroke="#0a0a0a" stroke-width="2.5"/>
      <path d="M0,75 L0,-15" stroke="#0a0a0a" stroke-width="2.5"/>
      <path d="M-10,40 L-40,40 L-40,-15" stroke="#0a0a0a" stroke-width="2"/>
      <path d="M10,20 L40,20 L40,-15" stroke="#0a0a0a" stroke-width="2"/>
      <path d="M-10,0 L-55,0 L-55,-40 L-30,-40" stroke="#0a0a0a" stroke-width="2"/>
      <path d="M10,10 L60,10 L60,-50 L80,-50" stroke="#0a0a0a" stroke-width="2"/>
      <circle cx="-40" cy="40" r="3" fill="#0a0a0a"/>
      <circle cx="40" cy="20" r="3" fill="#0a0a0a"/>
      <circle cx="-55" cy="0" r="3" fill="#0a0a0a"/>
      <circle cx="60" cy="10" r="3" fill="#0a0a0a"/>
      <circle cx="-30" cy="-40" r="3" fill="#0a0a0a"/>
      <circle cx="80" cy="-50" r="3" fill="#0a0a0a"/>
      <path d="M-80,-50 L-110,-48 L-125,-43" stroke="#0a0a0a" stroke-width="2"/>
      <path d="M-75,-40 L-100,-38" stroke="#0a0a0a" stroke-width="2"/>
      <circle cx="-100" cy="-38" r="2.5" fill="#0a0a0a"/>
    </g>
  </g>
</svg>
